<svg width="708" height="484" viewBox="0 0 708 484" fill="none" xmlns="http://www.w3.org/2000/svg">
<path fill-rule="evenodd" clip-rule="evenodd" d="M34.375 168.818H94.8864V397.795C94.8864 414.651 91.572 428.288 84.9432 438.704C78.3144 449.121 68.7974 456.744 56.392 461.574C44.0814 466.403 29.3561 468.818 12.2159 468.818C10.1326 468.818 8.14394 468.771 6.25 468.676C4.26136 468.676 2.17803 468.629 0 468.534V421.233C1.60985 421.328 3.0303 421.375 4.26136 421.375C5.39773 421.47 6.62879 421.517 7.95455 421.517C17.7083 421.517 24.5265 419.434 28.4091 415.267C32.3864 411.195 34.375 405.04 34.375 396.801V168.818ZM143.359 387V168.818H203.871V171.379L180.102 178.606L203.871 203.266V387H143.359ZM312.855 260.864V387H252.344V168.818H310.014V207.312H312.571C317.401 194.623 325.497 184.585 336.861 177.199C348.224 169.718 362.003 165.977 378.196 165.977C393.348 165.977 406.558 169.292 417.827 175.92C429.096 182.549 437.855 192.019 444.105 204.329C450.355 216.545 453.48 231.129 453.48 248.079V387H392.969V258.875C393.063 245.523 389.654 235.106 382.741 227.625C375.829 220.049 366.312 216.261 354.19 216.261C346.046 216.261 338.849 218.013 332.599 221.517C326.444 225.021 321.615 230.134 318.111 236.858C314.702 243.487 312.95 251.489 312.855 260.864Z" fill="white"/>
<path fill-rule="evenodd" clip-rule="evenodd" d="M184.47 220.228C185.911 220.682 187.507 220.009 188.61 219.15C190.765 217.451 197.012 211.731 203.406 202.784L180.102 178.606L221.834 165.917L230.729 148.903L230.734 148.897L230.733 148.887L247.899 116.043C248.692 114.349 248.884 112.516 248.436 110.921C247.989 109.327 246.935 108.092 245.493 107.473C244.051 106.854 242.33 106.897 240.686 107.593C239.042 108.29 237.6 109.586 236.657 111.215L220.892 141.393C220.153 142.809 219.076 144.388 217.209 143.69C215.373 143.016 215.758 140.712 218.28 135.411L235.4 99.3163C235.883 98.3553 236.194 97.3364 236.314 96.3196C236.434 95.3029 236.361 94.309 236.099 93.3966C235.836 92.4843 235.39 91.672 234.787 91.0078C234.183 90.3436 233.435 89.841 232.586 89.5296C231.736 89.2183 230.803 89.1045 229.842 89.195C228.88 89.2855 227.909 89.5785 226.987 90.0567C226.065 90.5348 225.21 91.1884 224.472 91.9788C223.735 92.7692 223.13 93.6804 222.693 94.6586L204.111 133.82C203.267 135.429 202.09 137.118 200.867 136.905C198.827 136.554 199.132 134.218 200.608 130.432L217.45 87.4229C217.835 86.4482 218.044 85.4377 218.065 84.4497C218.086 83.4618 217.92 82.5159 217.574 81.6666C217.229 80.8173 216.712 80.0814 216.053 79.5013C215.393 78.9213 214.606 78.5086 213.734 78.2871C212.866 78.0611 211.932 78.0293 210.984 78.1935C210.036 78.3577 209.093 78.7146 208.21 79.2439C207.327 79.7732 206.52 80.4645 205.836 81.2783C205.152 82.092 204.604 83.0122 204.224 83.9863L186.509 129.215C185.043 132.648 184.078 133.418 182.489 133.075C180.7 132.699 180.336 130.656 181.593 126.939L194.434 88.8142C195.023 86.8601 194.901 84.8796 194.094 83.2888C193.286 81.6981 191.857 80.6208 190.105 80.2833C188.354 79.9458 186.417 80.3744 184.7 81.479C182.984 82.5836 181.623 84.2783 180.902 86.207L166.183 129.893C158.857 151.621 150.724 161.108 148.071 161.752C145.958 162.264 140.806 156.533 135.972 151.155C132.947 147.791 130.047 144.564 128.093 143.092C120.684 137.509 110.418 148.489 112.893 150.597C136.01 170.369 143.261 200.738 143.584 203.771C143.793 205.765 145.026 207.589 148.003 208.617C149.041 208.981 183.429 219.9 184.47 220.228Z" fill="white"/>
<path fill-rule="evenodd" clip-rule="evenodd" d="M551.943 168.818L591.999 245.097L633.051 168.818H695.124L642.486 259.664L614.227 276.97L641.177 293.475L696.829 387H635.039L591.999 311.574L549.67 387H487.17L542.455 293.888L570.08 276.97L541.311 259.352L489.443 168.818H551.943Z" fill="white"/>
</svg>
