<svg xmlns="http://www.w3.org/2000/svg" xmlns:xlink="http://www.w3.org/1999/xlink" width="1280" zoomAndPan="magnify" viewBox="0 0 960 540.000001" height="720" preserveAspectRatio="xMidYMid meet" version="1.0">
<defs><clipPath id="4ff48a7fb1"><path d="M 0.886719 291 L 66 291 L 66 539 L 0.886719 539 Z M 0.886719 291 " clip-rule="nonzero"/></clipPath><clipPath id="54422e9f63"><path d="M 512 0 L 959.113281 0 L 959.113281 539 L 512 539 Z M 512 0 " clip-rule="nonzero"/></clipPath><clipPath id="49721f35b6"><path d="M 0.886719 178 L 456 178 L 456 539 L 0.886719 539 Z M 0.886719 178 " clip-rule="nonzero"/></clipPath><clipPath id="333d1d4fd4"><path d="M 154 178 L 456 178 L 456 539 L 154 539 Z M 154 178 " clip-rule="nonzero"/></clipPath><clipPath id="44e3ce6590"><path d="M 178 155 L 818 155 L 818 539 L 178 539 Z M 178 155 " clip-rule="nonzero"/></clipPath><clipPath id="d4865a8f96"><path d="M 498 155 L 818 155 L 818 539 L 498 539 Z M 498 155 " clip-rule="nonzero"/></clipPath><clipPath id="8d0cd24196"><path d="M 0.886719 275 L 114 275 L 114 419 L 0.886719 419 Z M 0.886719 275 " clip-rule="nonzero"/></clipPath><clipPath id="c92358e2c1"><path d="M 333 345 L 663 345 L 663 539 L 333 539 Z M 333 345 " clip-rule="nonzero"/></clipPath><clipPath id="5c985e826b"><path d="M 498 345 L 663 345 L 663 539 L 498 539 Z M 498 345 " clip-rule="nonzero"/></clipPath><clipPath id="633159f0a0"><path d="M 682 140 L 959.113281 140 L 959.113281 341 L 682 341 Z M 682 140 " clip-rule="nonzero"/></clipPath><clipPath id="91b15e269b"><path d="M 845 140 L 959.113281 140 L 959.113281 341 L 845 341 Z M 845 140 " clip-rule="nonzero"/></clipPath></defs><path fill="#312457" d="M 413.109375 154.496094 L 621.160156 408.996094 L 200.957031 408.996094 C 270.988281 323.324219 341.019531 237.652344 411.058594 151.984375 Z M 609.972656 403.6875 L 411.058594 160.363281 L 212.144531 403.6875 Z M 609.972656 403.6875 " fill-opacity="1" fill-rule="nonzero"/><path fill="#312457" d="M 653.195312 187.773438 L 841.617188 418.265625 L 464.773438 418.265625 Z M 653.195312 187.773438 " fill-opacity="1" fill-rule="evenodd"/><path fill="#723fdf" d="M 653.195312 187.773438 L 841.617188 418.265625 L 653.195312 418.265625 Z M 653.195312 187.773438 " fill-opacity="0.102" fill-rule="evenodd"/><g clip-path="url(#4ff48a7fb1)"><path fill="#312457" d="M 65.464844 546.121094 L -145.761719 546.121094 L -145.761719 543.152344 L 63.035156 543.152344 Z M -145.761719 528.332031 L -145.761719 522.210938 L 45.917969 522.210938 L 50.921875 528.332031 Z M -145.761719 507.390625 L -145.761719 501.269531 L 28.796875 501.269531 L 33.800781 507.390625 Z M -145.761719 486.449219 L -145.761719 480.328125 L 11.679688 480.328125 L 16.683594 486.449219 Z M -145.761719 465.507812 L -145.761719 459.386719 L -5.441406 459.386719 L -0.4375 465.507812 Z M -145.761719 444.566406 L -145.761719 438.445312 L -22.558594 438.445312 L -17.554688 444.566406 Z M -145.761719 423.625 L -145.761719 417.503906 L -39.679688 417.503906 L -34.675781 423.625 Z M -145.761719 402.683594 L -145.761719 396.5625 L -56.796875 396.5625 L -51.792969 402.683594 Z M -145.761719 381.742188 L -145.761719 375.621094 L -73.917969 375.621094 L -68.914062 381.742188 Z M -145.761719 360.800781 L -145.761719 354.679688 L -91.035156 354.679688 L -86.03125 360.800781 Z M -145.761719 339.859375 L -145.761719 333.738281 L -108.15625 333.738281 L -103.152344 339.859375 Z M -145.761719 318.917969 L -145.761719 312.796875 L -125.273438 312.796875 L -120.269531 318.917969 Z M -145.761719 297.976562 L -145.761719 291.855469 L -142.394531 291.855469 L -137.390625 297.976562 Z M -145.761719 297.976562 " fill-opacity="1" fill-rule="evenodd"/></g><g clip-path="url(#54422e9f63)"><path fill="#312457" d="M 964.628906 -7.125 L 1036.214844 80.441406 L 1036.214844 546.121094 L 512.363281 546.121094 Z M 964.628906 -7.125 " fill-opacity="1" fill-rule="evenodd"/></g><g clip-path="url(#49721f35b6)"><path fill="#e1d4ff" d="M 154.875 178.363281 L 455.511719 546.121094 L -145.761719 546.121094 Z M 154.875 178.363281 " fill-opacity="1" fill-rule="evenodd"/></g><g clip-path="url(#333d1d4fd4)"><path fill="#723fdf" d="M 154.875 178.363281 L 455.511719 546.121094 L 154.875 546.121094 Z M 154.875 178.363281 " fill-opacity="0.102" fill-rule="evenodd"/></g><g clip-path="url(#44e3ce6590)"><path fill="#f8f4ff" d="M 817.707031 546.121094 L 702.199219 546.121094 L 498.234375 296.613281 L 294.265625 546.121094 L 178.757812 546.121094 L 498.234375 155.320312 Z M 817.707031 546.121094 " fill-opacity="1" fill-rule="evenodd"/></g><g clip-path="url(#d4865a8f96)"><path fill="#723fdf" d="M 817.707031 546.121094 L 702.199219 546.121094 L 498.234375 296.613281 L 498.230469 296.617188 L 498.230469 155.320312 L 498.234375 155.320312 Z M 817.707031 546.121094 " fill-opacity="0.102" fill-rule="evenodd"/></g><g clip-path="url(#8d0cd24196)"><path fill="#f8f4ff" d="M -3.574219 275.105469 L 113.703125 418.570312 L -120.851562 418.570312 Z M -3.574219 275.105469 " fill-opacity="1" fill-rule="evenodd"/><path fill="#723fdf" d="M -3.574219 275.105469 L 113.703125 418.570312 L -3.574219 418.570312 Z M -3.574219 275.105469 " fill-opacity="0.102" fill-rule="evenodd"/></g><g clip-path="url(#c92358e2c1)"><path fill="#312457" d="M 560.636719 546.121094 L 498.234375 469.785156 L 435.828125 546.121094 L 333.820312 546.121094 L 498.234375 345.003906 L 662.644531 546.121094 Z M 560.636719 546.121094 " fill-opacity="1" fill-rule="evenodd"/></g><g clip-path="url(#5c985e826b)"><path fill="#723fdf" d="M 560.636719 546.121094 L 498.234375 469.785156 L 498.230469 469.785156 L 498.230469 345.003906 L 498.234375 345.003906 L 662.644531 546.121094 Z M 560.636719 546.121094 " fill-opacity="0.102" fill-rule="evenodd"/></g><path fill="#312457" d="M 316.558594 336.914062 L 474.136719 144.152344 L 158.980469 144.152344 Z M 316.558594 336.914062 " fill-opacity="1" fill-rule="evenodd"/><path fill="#723fdf" d="M 316.558594 336.914062 L 474.136719 144.152344 L 316.558594 144.152344 Z M 316.558594 336.914062 " fill-opacity="0.102" fill-rule="evenodd"/><path fill="#f8f4ff" d="M 587.851562 227.875 L 646.09375 156.628906 L 529.605469 156.628906 Z M 587.851562 227.875 " fill-opacity="1" fill-rule="evenodd"/><path fill="#723fdf" d="M 587.851562 227.875 L 646.09375 156.628906 L 587.851562 156.628906 Z M 587.851562 227.875 " fill-opacity="0.102" fill-rule="evenodd"/><path fill="#e1d4ff" d="M 836.066406 505.515625 L 943.757812 373.777344 L 728.371094 373.777344 Z M 836.066406 505.515625 " fill-opacity="1" fill-rule="evenodd"/><path fill="#723fdf" d="M 836.066406 505.515625 L 943.757812 373.777344 L 836.066406 373.777344 Z M 836.066406 505.515625 " fill-opacity="0.102" fill-rule="evenodd"/><g clip-path="url(#633159f0a0)"><path fill="#f8f4ff" d="M 845.691406 340.988281 L 682.109375 140.886719 L 1009.269531 140.886719 Z M 845.691406 283.566406 L 932.617188 177.230469 L 758.761719 177.230469 Z M 845.691406 283.566406 " fill-opacity="1" fill-rule="evenodd"/></g><g clip-path="url(#91b15e269b)"><path fill="#723fdf" d="M 845.691406 340.988281 L 845.691406 283.566406 L 932.617188 177.230469 L 845.691406 177.230469 L 845.691406 140.886719 L 1009.269531 140.886719 Z M 845.691406 340.988281 " fill-opacity="0.102" fill-rule="evenodd"/>
</g>
</svg>